Coordinates
version=1
nRows=9
nColumns=36
inDegrees=yes

Units are S.I. units (second, meters, Newtons, ...)
If the header above contains a line with 'inDegrees', this indicates whether rotational values are in degrees (yes) or radians (no).

endheader
time	pelvis_tilt	pelvis_list	pelvis_rotation	pelvis_tx	pelvis_ty	pelvis_tz	hip_flexion_r	hip_adduction_r	hip_rotation_r	knee_angle_r	knee_angle_r_beta	ankle_angle_r	subtalar_angle_r	mtp_angle_r	hip_flexion_l	hip_adduction_l	hip_rotation_l	knee_angle_l	knee_angle_l_beta	ankle_angle_l	subtalar_angle_l	mtp_angle_l	lumbar_extension	lumbar_bending	lumbar_rotation	arm_flex_r	arm_add_r	arm_rot_r	elbow_flex_r	pro_sup_r	arm_flex_l	arm_add_l	arm_rot_l	elbow_flex_l	pro_sup_l
      1.45000000	      1.93837770	      2.68555656	     -1.90240017	     -0.05158323	      1.25396585	     -0.07923199	     -4.92968351	     -3.84359188	     -6.77018202	      5.83145243	      0.10177805	     16.87978382	     -7.39941705	     -7.49999987	     -4.13727090	      2.03038773	     -8.19140664	      4.50453684	      0.07861900	     12.55649383	     -4.23449665	     -7.49999987	     -3.96057045	     -2.18893310	     -3.43208886	      4.83798587	    -10.28183171	     12.94232369	     17.29460312	    104.10434695	     -2.52411473	    -10.69287722	      1.79113969	     16.57431189	     97.64913554
      1.46666670	      1.96704906	      2.73692593	     -1.83047606	     -0.05158023	      1.25693463	     -0.07917926	     -4.97832507	     -3.87835279	     -6.67273381	      5.98106920	      0.10438935	     17.00036929	     -7.52095966	     -7.49999987	     -4.17986650	      2.07087581	     -8.00260841	      4.54133900	      0.07926132	     12.64592724	     -4.22866261	     -7.49999987	     -3.96807676	     -2.23623047	     -3.40874584	      4.60087700	    -10.32091925	     12.19145065	     17.61606257	    106.45837343	     -2.73326876	    -10.67720681	      0.76482019	     16.97456597	    100.83170746
      1.48333330	      1.98906408	      2.78542812	     -1.70706035	     -0.05143150	      1.25797365	     -0.07925053	     -4.97179166	     -3.90986176	     -6.62529890	      6.13170156	      0.10701838	     17.23432485	     -7.47246375	     -7.49999987	     -4.24503693	      2.13426104	     -7.87311126	      4.54792719	      0.07937630	     12.76592154	     -4.15020243	     -7.49999987	     -3.95469431	     -2.24197573	     -3.55704686	      4.66038111	    -10.37679875	     13.15471463	     17.41475075	    105.75079963	     -2.94561930	    -10.67215412	      1.17357162	     16.95626527	    100.21946630
      1.50000000	      2.00280314	      2.80522703	     -1.56446353	     -0.05149997	      1.25736085	     -0.07930436	     -4.98941948	     -3.90303596	     -6.49812946	      6.22305187	      0.10861274	     17.35771271	     -7.49968376	     -7.49999987	     -4.31188479	      2.16553349	     -7.82102876	      4.63083257	      0.08082328	     12.76251691	     -4.28594364	     -7.49999987	     -3.96723015	     -2.25932513	     -3.51810756	      4.45145565	    -10.34936549	     12.23283520	     17.43695286	    106.62570030	     -2.92671135	    -10.72157439	      0.94096997	     16.93668938	    100.67142329
      1.51666670	      2.21368822	      2.83809979	     -1.42272002	     -0.05139211	      1.25855010	     -0.07944146	     -5.29727717	     -3.90712656	     -6.42648846	      6.15318195	      0.10739328	     17.38519475	     -7.50786944	     -7.49999987	     -4.58664732	      2.20725951	     -7.69785018	      4.70267897	      0.08207723	     12.63510433	     -4.53276981	     -7.49999987	     -4.32510173	     -2.32380862	     -3.57796191	      4.18661931	    -10.40262174	     12.31117032	     17.87313678	    103.89851755	     -2.91393228	    -10.76061578	      1.03427188	     17.28877906	     97.70482248
      1.53333330	      2.06327590	      2.88771908	     -1.32960508	     -0.05133955	      1.25758700	     -0.07937112	     -5.16624656	     -3.91993093	     -6.25053485	      6.25147670	      0.10910885	     17.54667324	     -7.53381660	     -7.49999987	     -4.37213304	      2.22999480	     -7.73919488	      4.94008525	      0.08622075	     12.84917292	     -4.54215940	     -7.49999987	     -3.94096943	     -2.34959341	     -3.74360052	      4.47881728	    -10.28054092	     13.37536500	     16.78526388	    102.97660419	     -2.72061348	    -10.75743217	      1.93533384	     16.15622836	     96.57255811
      1.55000000	      1.93487763	      2.93007288	     -1.28815393	     -0.05100174	      1.25826652	     -0.07937855	     -5.00939305	     -3.92599316	     -6.13966385	      6.45209380	      0.11261028	     17.61298978	     -7.56095339	     -7.49999987	     -4.23373595	      2.28484342	     -7.63957581	      4.96463508	      0.08664923	     13.01674078	     -4.45491967	     -7.49999987	     -3.83266730	     -2.41594129	     -3.66600795	      4.19949802	    -10.35000229	     12.96491146	     16.92286702	    106.36159406	     -2.88788987	    -10.87238998	      1.85484526	     16.33898661	     99.66694780
      1.56666670	      1.72954427	      2.99570354	     -1.28475422	     -0.05097829	      1.25707704	     -0.07911998	     -4.70849917	     -3.93634465	     -5.96289369	      6.73794428	      0.11759931	     17.76840280	     -7.60578221	     -7.49999987	     -3.94318688	      2.37941475	     -7.31122716	      5.01298487	      0.08749309	     13.28708358	     -4.38768164	     -7.49999987	     -3.61669863	     -2.50290291	     -3.71543787	      4.20509105	    -10.35067933	     14.01525804	     16.44381026	    105.51611475	     -3.00861323	    -10.93814888	      2.41781049	     15.95326942	     98.67672480
      1.58333330	      1.63525842	      3.03202188	     -1.21039395	     -0.05090293	      1.25789162	     -0.07903761	     -4.49762443	     -3.92594469	     -5.86529709	      6.97788386	      0.12178705	     17.88866319	     -7.66036276	     -7.49999987	     -3.81354709	      2.44578872	     -7.24522998	      5.11831919	      0.08933152	     13.43406512	     -4.03339216	     -7.49999987	     -3.70785533	     -2.54503849	     -3.73878998	      4.13677533	    -10.37542256	     14.40992086	     16.25573180	    104.72497130	     -3.16504157	    -10.96156960	      2.18070240	     15.79529981	     97.94466056
